<?xml version="1.0" standalone="no"?><!DOCTYPE svg PUBLIC "-//W3C//DTD SVG 1.1//EN" "http://www.w3.org/Graphics/SVG/1.1/DTD/svg11.dtd"><svg t="1629363980820" class="icon" viewBox="0 0 1024 1024" version="1.1" xmlns="http://www.w3.org/2000/svg" p-id="5244" xmlns:xlink="http://www.w3.org/1999/xlink" width="200" height="200"><defs><style type="text/css"></style></defs><path d="M682.666667 384h192a21.333333 21.333333 0 0 0 21.333333-21.333333v-42.666667a21.333333 21.333333 0 0 0-21.333333-21.333333H725.333333V149.333333a21.333333 21.333333 0 0 0-21.333333-21.333333h-42.666667a21.333333 21.333333 0 0 0-21.333333 21.333333V341.333333a42.666667 42.666667 0 0 0 42.666667 42.666667zM384 341.333333V149.333333a21.333333 21.333333 0 0 0-21.333333-21.333333h-42.666667a21.333333 21.333333 0 0 0-21.333333 21.333333V298.666667H149.333333a21.333333 21.333333 0 0 0-21.333333 21.333333v42.666667a21.333333 21.333333 0 0 0 21.333333 21.333333H341.333333a42.666667 42.666667 0 0 0 42.666667-42.666667z m341.333333 533.333334V725.333333h149.333334a21.333333 21.333333 0 0 0 21.333333-21.333333v-42.666667a21.333333 21.333333 0 0 0-21.333333-21.333333H682.666667a42.666667 42.666667 0 0 0-42.666667 42.666667v192a21.333333 21.333333 0 0 0 21.333333 21.333333h42.666667a21.333333 21.333333 0 0 0 21.333333-21.333333z m-405.333333 21.333333h42.666667a21.333333 21.333333 0 0 0 21.333333-21.333333V682.666667a42.666667 42.666667 0 0 0-42.666667-42.666667H149.333333a21.333333 21.333333 0 0 0-21.333333 21.333333v42.666667a21.333333 21.333333 0 0 0 21.333333 21.333333H298.666667v149.333334a21.333333 21.333333 0 0 0 21.333333 21.333333z" p-id="5245"></path></svg>